<?xml version="1.0" encoding="UTF-8" standalone="no"?>
<svg
   viewBox="0 0 793.7007874015749 1122.5196850393702"
   width="793.7007874015749"
   height="1122.5196850393702"
   version="1.1"
   id="svg118"
   sodipodi:docname="front_plate_M6.svg"
   inkscape:version="1.3.1 (9b9bdc1480, 2023-11-25, custom)"
   xmlns:inkscape="http://www.inkscape.org/namespaces/inkscape"
   xmlns:sodipodi="http://sodipodi.sourceforge.net/DTD/sodipodi-0.dtd"
   xmlns="http://www.w3.org/2000/svg"
   xmlns:svg="http://www.w3.org/2000/svg">
  <sodipodi:namedview
     id="namedview118"
     pagecolor="#ffffff"
     bordercolor="#000000"
     borderopacity="0.25"
     inkscape:showpageshadow="2"
     inkscape:pageopacity="0.0"
     inkscape:pagecheckerboard="0"
     inkscape:deskcolor="#d1d1d1"
     showgrid="false"
     inkscape:zoom="1.4815911"
     inkscape:cx="396.53315"
     inkscape:cy="534.89791"
     inkscape:window-width="1523"
     inkscape:window-height="1237"
     inkscape:window-x="1761"
     inkscape:window-y="92"
     inkscape:window-maximized="0"
     inkscape:current-layer="g118" />
  <desc
     id="desc1">front_plate_M6-Körper.dxf - scale = 1.000000, origin = (0.000000, 0.000000), method = manual</desc>
  <defs
     id="defs4">
    <marker
       id="DistanceX"
       orient="auto"
       refX="0.0"
       refY="0.0"
       style="overflow:visible">
      <path
         d="M 3,-3 L -3,3 M 0,-5 L  0,5"
         style="stroke:#000000; stroke-width:0.5"
         id="path1" />
    </marker>
    <pattern
       id="Hatch"
       patternUnits="userSpaceOnUse"
       width="8"
       height="8"
       x="0"
       y="0">
      <path
         d="M8 4 l-4,4"
         stroke="#000000"
         stroke-width="0.25"
         linecap="square"
         id="path2" />
      <path
         d="M6 2 l-4,4"
         stroke="#000000"
         stroke-width="0.25"
         linecap="square"
         id="path3" />
      <path
         d="M4 0 l-4,4"
         stroke="#000000"
         stroke-width="0.25"
         linecap="square"
         id="path4" />
    </pattern>
    <symbol
       id="*MODEL_SPACE" />
    <symbol
       id="*PAPER_SPACE" />
  </defs>
  <g
     inkscape:groupmode="layer"
     inkscape:label="0"
     id="g4" />
  <g
     inkscape:groupmode="layer"
     inkscape:label="none"
     id="g5" />
  <g
     inkscape:groupmode="layer"
     inkscape:label="Body"
     id="g118">
    <g
       id="g127"
       transform="translate(-55.972243,-54.253556)">
      <rect
         style="fill:none;stroke:#000000;stroke-width:2.88889;stroke-dasharray:none;stroke-dashoffset:0;stroke-opacity:1"
         id="rect125"
         width="318.37094"
         height="1206.5599"
         x="118.81971"
         y="-85.484726" />
      <text
         xml:space="preserve"
         style="font-weight:bold;font-size:21.3333px;font-family:'Waltograph UI';-inkscape-font-specification:'Waltograph UI Bold';fill:#000000"
         x="263.13693"
         y="1095.4943"
         id="text118-6"><tspan
           sodipodi:role="line"
           id="tspan118-0"
           x="263.13693"
           y="1095.4943"
           style="font-style:normal;font-variant:normal;font-weight:normal;font-stretch:normal;font-family:arial;-inkscape-font-specification:arial">Kante</tspan></text>
      <g
         id="g126"
         transform="translate(-134.0514,-66.486819)">
        <path
           style="fill:none;stroke:#000000"
           d="m 473.84565,234.67537 v 0"
           id="path5" />
        <path
           style="fill:none;stroke:#000000"
           d="m 303.76685,234.67537 v 0"
           id="path6" />
        <path
           d="m 473.84562,234.67576 a 85.03937,85.03937 0 0 0 -170.07874,0"
           style="fill:none;stroke:#000000"
           id="path7" />
        <path
           d="m 473.84562,234.67576 a 85.03937,85.03937 0 0 0 -170.07874,0"
           style="fill:none;stroke:#000000"
           id="path8" />
        <path
           style="fill:none;stroke:#000000"
           d="m 303.76685,234.67537 v 0"
           id="path9" />
        <path
           style="fill:none;stroke:#000000"
           d="m 303.76685,933.89237 v 0"
           id="path10" />
        <path
           style="fill:none;stroke:#000000"
           d="m 303.76685,234.67537 v 699.217"
           id="path11" />
        <path
           style="fill:none;stroke:#000000"
           d="m 303.76685,234.67537 v 699.217"
           id="path12" />
        <path
           style="fill:none;stroke:#000000"
           d="m 303.76685,933.89237 v 0"
           id="path13" />
        <path
           style="fill:none;stroke:#000000"
           d="m 473.84565,933.89237 v 0"
           id="path14" />
        <path
           d="m 303.76688,933.88836 a 85.03937,85.03937 0 0 0 170.07874,0"
           style="fill:none;stroke:#000000"
           id="path15" />
        <path
           d="m 303.76688,933.88836 a 85.03937,85.03937 0 0 0 170.07874,0"
           style="fill:none;stroke:#000000"
           id="path16" />
        <path
           style="fill:none;stroke:#000000"
           d="m 473.84565,234.67537 v 0"
           id="path17" />
        <path
           style="fill:none;stroke:#000000"
           d="m 473.84565,933.89237 v 0"
           id="path18" />
        <path
           style="fill:none;stroke:#000000"
           d="m 473.84565,234.67537 v 699.217"
           id="path19" />
        <path
           style="fill:none;stroke:#000000"
           d="m 473.84565,234.67537 v 699.217"
           id="path20" />
        <path
           style="fill:none;stroke:#000000"
           d="m 428.49125,584.28237 v 0"
           id="path21" />
        <path
           style="fill:none;stroke:#000000"
           d="m 428.49125,584.28237 v 0"
           id="path22" />
        <path
           d="m 428.49129,584.28206 a 39.685039,39.685039 0 0 0 -79.37007,0 39.685039,39.685039 0 0 0 79.37007,0 z"
           style="fill:none;stroke:#000000"
           id="path23" />
        <path
           d="m 428.49129,584.28206 a 39.685039,39.685039 0 0 0 -79.37007,0 39.685039,39.685039 0 0 0 79.37007,0 z"
           style="fill:none;stroke:#000000"
           id="path24" />
        <path
           style="fill:none;stroke:#000000"
           d="m 406.44495,933.89237 v 0"
           id="path25" />
        <path
           style="fill:none;stroke:#000000"
           d="m 388.80625,916.25237 v 0"
           id="path26" />
        <path
           style="fill:none;stroke:#000000"
           d="m 406.44495,933.89237 -17.6387,-17.64"
           id="path27" />
        <path
           style="fill:none;stroke:#000000"
           d="m 406.44495,933.89237 -17.6387,-17.64"
           id="path28" />
        <path
           style="fill:none;stroke:#000000"
           d="m 388.80625,916.25237 v 0"
           id="path29" />
        <path
           style="fill:none;stroke:#000000"
           d="m 371.16755,933.89237 v 0"
           id="path30" />
        <path
           style="fill:none;stroke:#000000"
           d="m 388.80625,916.25237 -17.6387,17.64"
           id="path31" />
        <path
           style="fill:none;stroke:#000000"
           d="m 388.80625,916.25237 -17.6387,17.64"
           id="path32" />
        <path
           style="fill:none;stroke:#000000"
           d="m 371.16755,933.89237 v 0"
           id="path33" />
        <path
           style="fill:none;stroke:#000000"
           d="m 388.80625,951.52237 v 0"
           id="path34" />
        <path
           style="fill:none;stroke:#000000"
           d="m 371.16755,933.89237 17.6387,17.63"
           id="path35" />
        <path
           style="fill:none;stroke:#000000"
           d="m 371.16755,933.89237 17.6387,17.63"
           id="path36" />
        <path
           style="fill:none;stroke:#000000"
           d="m 388.80625,951.52237 v 0"
           id="path37" />
        <path
           style="fill:none;stroke:#000000"
           d="m 406.44495,933.89237 v 0"
           id="path38" />
        <path
           style="fill:none;stroke:#000000"
           d="m 388.80625,951.52237 17.6387,-17.63"
           id="path39" />
        <path
           style="fill:none;stroke:#000000"
           d="m 388.80625,951.52237 17.6387,-17.63"
           id="path40" />
        <path
           style="fill:none;stroke:#000000"
           d="m 406.44495,234.67537 v 0"
           id="path41" />
        <path
           style="fill:none;stroke:#000000"
           d="m 388.80625,217.03737 v 0"
           id="path42" />
        <path
           style="fill:none;stroke:#000000"
           d="m 406.44495,234.67537 -17.6387,-17.638"
           id="path43" />
        <path
           style="fill:none;stroke:#000000"
           d="m 406.44495,234.67537 -17.6387,-17.638"
           id="path44" />
        <path
           style="fill:none;stroke:#000000"
           d="m 388.80625,217.03737 v 0"
           id="path45" />
        <path
           style="fill:none;stroke:#000000"
           d="m 371.16755,234.67537 v 0"
           id="path46" />
        <path
           style="fill:none;stroke:#000000"
           d="m 388.80625,217.03737 -17.6387,17.638"
           id="path47" />
        <path
           style="fill:none;stroke:#000000"
           d="m 388.80625,217.03737 -17.6387,17.638"
           id="path48" />
        <path
           style="fill:none;stroke:#000000"
           d="m 371.16755,234.67537 v 0"
           id="path49" />
        <path
           style="fill:none;stroke:#000000"
           d="m 388.80625,252.31437 v 0"
           id="path50" />
        <path
           style="fill:none;stroke:#000000"
           d="m 371.16755,234.67537 17.6387,17.639"
           id="path51" />
        <path
           style="fill:none;stroke:#000000"
           d="m 371.16755,234.67537 17.6387,17.639"
           id="path52" />
        <path
           style="fill:none;stroke:#000000"
           d="m 388.80625,252.31437 v 0"
           id="path53" />
        <path
           style="fill:none;stroke:#000000"
           d="m 406.44495,234.67537 v 0"
           id="path54" />
        <path
           style="fill:none;stroke:#000000"
           d="m 388.80625,252.31437 17.6387,-17.639"
           id="path55" />
        <path
           style="fill:none;stroke:#000000"
           d="m 388.80625,252.31437 17.6387,-17.639"
           id="path56" />
        <path
           style="fill:none;stroke:#000000"
           d="m 369.90865,824.28237 v 0"
           id="path57" />
        <path
           style="fill:none;stroke:#000000"
           d="m 407.70385,824.28237 v 0"
           id="path58" />
        <path
           style="fill:none;stroke:#000000"
           d="m 369.90865,824.28237 h 37.7952"
           id="path59" />
        <path
           style="fill:none;stroke:#000000"
           d="m 369.90865,824.28237 h 37.7952"
           id="path60" />
        <path
           style="fill:none;stroke:#000000"
           d="m 407.70385,824.28237 v 0"
           id="path61" />
        <path
           style="fill:none;stroke:#000000"
           d="m 407.70385,843.18237 v 0"
           id="path62" />
        <path
           style="fill:none;stroke:#000000"
           d="m 407.70385,824.28237 v 18.9"
           id="path63" />
        <path
           style="fill:none;stroke:#000000"
           d="m 407.70385,824.28237 v 18.9"
           id="path64" />
        <path
           style="fill:none;stroke:#000000"
           d="m 407.70385,843.18237 v 0"
           id="path65" />
        <path
           style="fill:none;stroke:#000000"
           d="m 369.90865,843.18237 v 0"
           id="path66" />
        <path
           style="fill:none;stroke:#000000"
           d="m 407.70385,843.18237 h -37.7952"
           id="path67" />
        <path
           style="fill:none;stroke:#000000"
           d="m 407.70385,843.18237 h -37.7952"
           id="path68" />
        <path
           style="fill:none;stroke:#000000"
           d="m 369.90865,843.18237 v 0"
           id="path69" />
        <path
           style="fill:none;stroke:#000000"
           d="m 369.90865,824.28237 v 0"
           id="path70" />
        <path
           style="fill:none;stroke:#000000"
           d="m 369.90865,843.18237 v -18.9"
           id="path71" />
        <path
           style="fill:none;stroke:#000000"
           d="m 369.90865,843.18237 v -18.9"
           id="path72" />
        <path
           style="fill:none;stroke:#000000"
           d="m 401.08975,692.00237 v 0"
           id="path73" />
        <path
           style="fill:none;stroke:#000000"
           d="m 401.08975,692.00237 v 0"
           id="path74" />
        <path
           d="m 401.08972,691.99859 a 12.283465,12.283465 0 0 0 -24.56693,0 12.283465,12.283465 0 0 0 24.56693,0 z"
           style="fill:none;stroke:#000000"
           id="path75" />
        <path
           d="m 401.08972,691.99859 a 12.283465,12.283465 0 0 0 -24.56693,0 12.283465,12.283465 0 0 0 24.56693,0 z"
           style="fill:none;stroke:#000000"
           id="path76" />
        <path
           style="fill:none;stroke:#000000"
           d="m 401.08975,880.97237 v 0"
           id="path77" />
        <path
           style="fill:none;stroke:#000000"
           d="m 401.08975,880.97237 v 0"
           id="path78" />
        <path
           d="m 401.08972,880.97497 a 12.283465,12.283465 0 0 0 -24.56693,0 12.283465,12.283465 0 0 0 24.56693,0 z"
           style="fill:none;stroke:#000000"
           id="path79" />
        <path
           d="m 401.08972,880.97497 a 12.283465,12.283465 0 0 0 -24.56693,0 12.283465,12.283465 0 0 0 24.56693,0 z"
           style="fill:none;stroke:#000000"
           id="path80" />
        <path
           d="m 473.84562,234.67576 a 85.03937,85.03937 0 0 0 -170.07874,0"
           style="fill:none;stroke:#000000"
           id="path81" />
        <path
           style="fill:none;stroke:#000000"
           d="m 303.76685,234.67537 v 699.217"
           id="path82" />
        <path
           d="m 303.76688,933.88836 a 85.03937,85.03937 0 0 0 170.07874,0"
           style="fill:none;stroke:#000000"
           id="path83" />
        <path
           style="fill:none;stroke:#000000"
           d="m 473.84565,234.67537 v 699.217"
           id="path84" />
        <path
           d="m 428.49129,584.28206 a 39.685039,39.685039 0 0 0 -79.37007,0 39.685039,39.685039 0 0 0 79.37007,0 z"
           style="fill:none;stroke:#000000"
           id="path85" />
        <path
           style="fill:none;stroke:#000000"
           d="m 406.44495,933.89237 -17.6387,-17.64"
           id="path86" />
        <path
           style="fill:none;stroke:#000000"
           d="m 388.80625,916.25237 -17.6387,17.64"
           id="path87" />
        <path
           style="fill:none;stroke:#000000"
           d="m 371.16755,933.89237 17.6387,17.63"
           id="path88" />
        <path
           style="fill:none;stroke:#000000"
           d="m 388.80625,951.52237 17.6387,-17.63"
           id="path89" />
        <path
           style="fill:none;stroke:#000000"
           d="m 406.44495,234.67537 -17.6387,-17.638"
           id="path90" />
        <path
           style="fill:none;stroke:#000000"
           d="m 388.80625,217.03737 -17.6387,17.638"
           id="path91" />
        <path
           style="fill:none;stroke:#000000"
           d="m 371.16755,234.67537 17.6387,17.639"
           id="path92" />
        <path
           style="fill:none;stroke:#000000"
           d="m 388.80625,252.31437 17.6387,-17.639"
           id="path93" />
        <path
           style="fill:none;stroke:#000000"
           d="m 369.90865,824.28237 h 37.7952"
           id="path94" />
        <path
           style="fill:none;stroke:#000000"
           d="m 407.70385,824.28237 v 18.9"
           id="path95" />
        <path
           style="fill:none;stroke:#000000"
           d="m 407.70385,843.18237 h -37.7952"
           id="path96" />
        <path
           style="fill:none;stroke:#000000"
           d="m 369.90865,843.18237 v -18.9"
           id="path97" />
        <path
           d="m 401.08972,691.99859 a 12.283465,12.283465 0 0 0 -24.56693,0 12.283465,12.283465 0 0 0 24.56693,0 z"
           style="fill:none;stroke:#000000"
           id="path98" />
        <path
           d="m 401.08972,880.97497 a 12.283465,12.283465 0 0 0 -24.56693,0 12.283465,12.283465 0 0 0 24.56693,0 z"
           style="fill:none;stroke:#000000"
           id="path99" />
        <path
           d="m 473.84562,234.67576 a 85.03937,85.03937 0 0 0 -170.07874,0"
           style="fill:none;stroke:#000000"
           id="path100" />
        <path
           style="fill:none;stroke:#000000"
           d="m 303.76685,234.67537 v 699.217"
           id="path101" />
        <path
           d="m 303.76688,933.88836 a 85.03937,85.03937 0 0 0 170.07874,0"
           style="fill:none;stroke:#000000"
           id="path102" />
        <path
           style="fill:none;stroke:#000000"
           d="m 473.84565,234.67537 v 699.217"
           id="path103" />
        <path
           d="m 428.49129,584.28206 a 39.685039,39.685039 0 0 0 -79.37007,0 39.685039,39.685039 0 0 0 79.37007,0 z"
           style="fill:none;stroke:#000000"
           id="path104" />
        <path
           style="fill:none;stroke:#000000"
           d="m 406.44495,933.89237 -17.6387,-17.64"
           id="path105" />
        <path
           style="fill:none;stroke:#000000"
           d="m 388.80625,916.25237 -17.6387,17.64"
           id="path106" />
        <path
           style="fill:none;stroke:#000000"
           d="m 371.16755,933.89237 17.6387,17.63"
           id="path107" />
        <path
           style="fill:none;stroke:#000000"
           d="m 388.80625,951.52237 17.6387,-17.63"
           id="path108" />
        <path
           style="fill:none;stroke:#000000"
           d="m 406.44495,234.67537 -17.6387,-17.638"
           id="path109" />
        <path
           style="fill:none;stroke:#000000"
           d="m 388.80625,217.03737 -17.6387,17.638"
           id="path110" />
        <path
           style="fill:none;stroke:#000000"
           d="m 371.16755,234.67537 17.6387,17.639"
           id="path111" />
        <path
           style="fill:none;stroke:#000000"
           d="m 388.80625,252.31437 17.6387,-17.639"
           id="path112" />
        <path
           style="fill:none;stroke:#000000"
           d="m 369.90865,824.28237 h 37.7952"
           id="path113" />
        <path
           style="fill:none;stroke:#000000"
           d="m 407.70385,824.28237 v 18.9"
           id="path114" />
        <path
           style="fill:none;stroke:#000000"
           d="m 407.70385,843.18237 h -37.7952"
           id="path115" />
        <path
           style="fill:none;stroke:#000000"
           d="m 369.90865,843.18237 v -18.9"
           id="path116" />
        <path
           d="m 401.08972,691.99859 a 12.283465,12.283465 0 0 0 -24.56693,0 12.283465,12.283465 0 0 0 24.56693,0 z"
           style="fill:none;stroke:#000000"
           id="path117" />
        <path
           d="m 401.08972,880.97497 a 12.283465,12.283465 0 0 0 -24.56693,0 12.283465,12.283465 0 0 0 24.56693,0 z"
           style="fill:none;stroke:#000000"
           id="path118" />
        <text
           xml:space="preserve"
           style="font-weight:bold;font-size:21.3333px;font-family:'Waltograph UI';-inkscape-font-specification:'Waltograph UI Bold';fill:#000000"
           x="403.23376"
           y="660.50317"
           id="text118"><tspan
             sodipodi:role="line"
             id="tspan118"
             x="403.23376"
             y="660.50317"
             style="font-style:normal;font-variant:normal;font-weight:normal;font-stretch:normal;font-family:arial;-inkscape-font-specification:arial">6,75</tspan></text>
        <text
           xml:space="preserve"
           style="font-weight:bold;font-size:21.3333px;font-family:'Waltograph UI';-inkscape-font-specification:'Waltograph UI Bold';fill:#000000"
           x="363.91666"
           y="805.89581"
           id="text118-7"><tspan
             sodipodi:role="line"
             id="tspan118-5"
             x="363.91666"
             y="805.89581"
             style="font-style:normal;font-variant:normal;font-weight:normal;font-stretch:normal;font-family:arial;-inkscape-font-specification:arial">10</tspan></text>
        <text
           xml:space="preserve"
           style="font-weight:bold;font-size:21.3333px;font-family:'Waltograph UI';-inkscape-font-specification:'Waltograph UI Bold';fill:#000000"
           x="409.81589"
           y="891.935"
           id="text118-3"><tspan
             sodipodi:role="line"
             id="tspan118-6"
             x="409.81589"
             y="891.935"
             style="font-style:normal;font-variant:normal;font-weight:normal;font-stretch:normal;font-family:arial;-inkscape-font-specification:arial">6,75</tspan></text>
        <text
           xml:space="preserve"
           style="font-weight:bold;font-size:21.3333px;font-family:'Waltograph UI';-inkscape-font-specification:'Waltograph UI Bold';fill:#000000"
           x="412.33337"
           y="841.29114"
           id="text118-35"><tspan
             sodipodi:role="line"
             id="tspan118-62"
             x="412.33337"
             y="841.29114"
             style="font-style:normal;font-variant:normal;font-weight:normal;font-stretch:normal;font-family:arial;-inkscape-font-specification:arial">5</tspan></text>
        <g
           id="g1"
           transform="translate(-18.3171,-127.60736)">
          <text
             xml:space="preserve"
             style="font-weight:bold;font-size:21.3333px;font-family:'Waltograph UI';-inkscape-font-specification:'Waltograph UI Bold';fill:#000000"
             x="403.23376"
             y="660.50317"
             id="text118-9"><tspan
               sodipodi:role="line"
               id="tspan118-1"
               x="403.23376"
               y="660.50317"
               style="font-style:normal;font-variant:normal;font-weight:normal;font-stretch:normal;font-family:arial;-inkscape-font-specification:arial">21</tspan></text>
        </g>
        <path
           style="fill:#000000;stroke:#000000;stroke-dasharray:1, 3;stroke-dashoffset:0;stroke-opacity:1"
           d="m 371.81952,234.96378 34.05377,-0.48601"
           id="path119" />
        <path
           style="fill:#000000;stroke:#000000;stroke-dasharray:1, 3;stroke-dashoffset:0;stroke-opacity:1"
           d="m 388.94532,217.30315 -0.053,34.86825"
           id="path120" />
        <path
           style="fill:#000000;stroke:#000000;stroke-dasharray:1, 3;stroke-dashoffset:0;stroke-opacity:1"
           d="m 372.06869,933.90713 34.15867,0.13276 v 0"
           id="path121" />
        <path
           style="fill:#000000;stroke:#000000;stroke-dasharray:1, 3;stroke-dashoffset:0;stroke-opacity:1"
           d="m 389.43209,916.62309 -0.80352,34.34079"
           id="path122" />
        <path
           style="fill:#000000;stroke:#000000;stroke-dasharray:1, 3;stroke-dashoffset:0;stroke-opacity:1"
           d="m 370.38036,824.35362 37.6653,18.85748"
           id="path123" />
        <path
           style="fill:#000000;stroke:#000000;stroke-dasharray:1, 3;stroke-dashoffset:0;stroke-opacity:1"
           d="m 407.80005,824.62724 -37.59617,18.32741"
           id="path124" />
        <circle
           style="fill:#000000;stroke:#000000;stroke-dasharray:none;stroke-dashoffset:0;stroke-opacity:1"
           id="path125"
           cx="388.80624"
           cy="691.9986"
           r="3.516793" />
        <circle
           style="fill:#000000;stroke:#000000;stroke-dasharray:none;stroke-dashoffset:0;stroke-opacity:1"
           id="path125-9"
           cx="388.80624"
           cy="584.28204"
           r="3.516793" />
        <circle
           style="fill:#000000;stroke:#000000;stroke-dasharray:none;stroke-dashoffset:0;stroke-opacity:1"
           id="path125-7"
           cx="388.80624"
           cy="880.97498"
           r="3.516793" />
      </g>
      <rect
         style="fill:none;stroke:#000000;stroke-width:0.850061;stroke-dasharray:none;stroke-dashoffset:0;stroke-opacity:1"
         id="rect126"
         width="55.842854"
         height="149.07834"
         x="117.80029"
         y="443.25607" />
      <path
         style="fill:none;stroke:#000000;stroke-dasharray:none;stroke-dashoffset:0;stroke-opacity:1"
         d="m 171.20339,62.323752 c 0,977.873848 1.0467,977.183348 1.0467,977.183348 l -3.00728,0.1648"
         id="path126" />
    </g>
    <rect
       style="fill:none;stroke:#000000;stroke-width:2.88889;stroke-dasharray:none;stroke-dashoffset:0;stroke-opacity:1"
       id="rect125-6"
       width="318.37094"
       height="1206.5599"
       x="420.12057"
       y="-139.73828" />
    <text
       xml:space="preserve"
       style="font-weight:bold;font-size:21.3333px;font-family:'Waltograph UI';-inkscape-font-specification:'Waltograph UI Bold';fill:#000000"
       x="564.43781"
       y="1041.2407"
       id="text118-6-1"><tspan
         sodipodi:role="line"
         id="tspan118-0-8"
         x="564.43781"
         y="1041.2407"
         style="font-style:normal;font-variant:normal;font-weight:normal;font-stretch:normal;font-family:arial;-inkscape-font-specification:arial">Kante</tspan></text>
    <path
       style="fill:none;stroke:#000000"
       d="m 641.09512,113.93499 v 0"
       id="path5-9" />
    <path
       style="fill:none;stroke:#000000"
       d="m 471.01632,113.93499 v 0"
       id="path6-2" />
    <path
       d="m 641.09509,113.93538 a 85.03937,85.03937 0 0 0 -170.07874,0"
       style="fill:none;stroke:#000000"
       id="path7-0" />
    <path
       d="m 641.09509,113.93538 a 85.03937,85.03937 0 0 0 -170.07874,0"
       style="fill:none;stroke:#000000"
       id="path8-2" />
    <path
       style="fill:none;stroke:#000000"
       d="m 471.01632,113.93499 v 0"
       id="path9-3" />
    <path
       style="fill:none;stroke:#000000"
       d="m 471.01632,813.15199 v 0"
       id="path10-7" />
    <path
       style="fill:none;stroke:#000000"
       d="m 471.01632,113.93499 v 699.217"
       id="path11-5" />
    <path
       style="fill:none;stroke:#000000"
       d="m 471.01632,113.93499 v 699.217"
       id="path12-9" />
    <path
       style="fill:none;stroke:#000000"
       d="m 471.01632,813.15199 v 0"
       id="path13-2" />
    <path
       style="fill:none;stroke:#000000"
       d="m 641.09512,813.15199 v 0"
       id="path14-2" />
    <path
       d="m 471.01635,813.14798 a 85.03937,85.03937 0 0 0 170.07874,0"
       style="fill:none;stroke:#000000"
       id="path15-8" />
    <path
       d="m 471.01635,813.14798 a 85.03937,85.03937 0 0 0 170.07874,0"
       style="fill:none;stroke:#000000"
       id="path16-9" />
    <path
       style="fill:none;stroke:#000000"
       d="m 641.09512,113.93499 v 0"
       id="path17-7" />
    <path
       style="fill:none;stroke:#000000"
       d="m 641.09512,813.15199 v 0"
       id="path18-3" />
    <path
       style="fill:none;stroke:#000000"
       d="m 641.09512,113.93499 v 699.217"
       id="path19-6" />
    <path
       style="fill:none;stroke:#000000"
       d="m 641.09512,113.93499 v 699.217"
       id="path20-1" />
    <path
       style="fill:none;stroke:#000000"
       d="m 595.74072,463.54199 v 0"
       id="path21-2" />
    <path
       style="fill:none;stroke:#000000"
       d="m 595.74072,463.54199 v 0"
       id="path22-9" />
    <path
       d="m 595.74076,463.54168 a 39.685039,39.685039 0 0 0 -79.37007,0 39.685039,39.685039 0 0 0 79.37007,0 z"
       style="fill:none;stroke:#000000"
       id="path23-3" />
    <path
       d="m 595.74076,463.54168 a 39.685039,39.685039 0 0 0 -79.37007,0 39.685039,39.685039 0 0 0 79.37007,0 z"
       style="fill:none;stroke:#000000"
       id="path24-1" />
    <path
       style="fill:none;stroke:#000000"
       d="m 573.69442,813.15199 v 0"
       id="path25-9" />
    <path
       style="fill:none;stroke:#000000"
       d="m 556.05572,795.51199 v 0"
       id="path26-4" />
    <path
       style="fill:none;stroke:#000000"
       d="m 573.69442,813.15199 -17.6387,-17.64"
       id="path27-7" />
    <path
       style="fill:none;stroke:#000000"
       d="m 573.69442,813.15199 -17.6387,-17.64"
       id="path28-8" />
    <path
       style="fill:none;stroke:#000000"
       d="m 556.05572,795.51199 v 0"
       id="path29-4" />
    <path
       style="fill:none;stroke:#000000"
       d="m 538.41702,813.15199 v 0"
       id="path30-5" />
    <path
       style="fill:none;stroke:#000000"
       d="m 556.05572,795.51199 -17.6387,17.64"
       id="path31-0" />
    <path
       style="fill:none;stroke:#000000"
       d="m 556.05572,795.51199 -17.6387,17.64"
       id="path32-3" />
    <path
       style="fill:none;stroke:#000000"
       d="m 538.41702,813.15199 v 0"
       id="path33-6" />
    <path
       style="fill:none;stroke:#000000"
       d="m 556.05572,830.78199 v 0"
       id="path34-1" />
    <path
       style="fill:none;stroke:#000000"
       d="m 538.41702,813.15199 17.6387,17.63"
       id="path35-0" />
    <path
       style="fill:none;stroke:#000000"
       d="m 538.41702,813.15199 17.6387,17.63"
       id="path36-6" />
    <path
       style="fill:none;stroke:#000000"
       d="m 556.05572,830.78199 v 0"
       id="path37-3" />
    <path
       style="fill:none;stroke:#000000"
       d="m 573.69442,813.15199 v 0"
       id="path38-2" />
    <path
       style="fill:none;stroke:#000000"
       d="m 556.05572,830.78199 17.6387,-17.63"
       id="path39-0" />
    <path
       style="fill:none;stroke:#000000"
       d="m 556.05572,830.78199 17.6387,-17.63"
       id="path40-6" />
    <path
       style="fill:none;stroke:#000000"
       d="m 573.69442,113.93499 v 0"
       id="path41-1" />
    <path
       style="fill:none;stroke:#000000"
       d="m 556.05572,96.29699 v 0"
       id="path42-5" />
    <path
       style="fill:none;stroke:#000000"
       d="m 573.69442,113.93499 -17.6387,-17.638"
       id="path43-5" />
    <path
       style="fill:none;stroke:#000000"
       d="m 573.69442,113.93499 -17.6387,-17.638"
       id="path44-4" />
    <path
       style="fill:none;stroke:#000000"
       d="m 556.05572,96.29699 v 0"
       id="path45-7" />
    <path
       style="fill:none;stroke:#000000"
       d="m 538.41702,113.93499 v 0"
       id="path46-6" />
    <path
       style="fill:none;stroke:#000000"
       d="m 556.05572,96.29699 -17.6387,17.638"
       id="path47-5" />
    <path
       style="fill:none;stroke:#000000"
       d="m 556.05572,96.29699 -17.6387,17.638"
       id="path48-6" />
    <path
       style="fill:none;stroke:#000000"
       d="m 538.41702,113.93499 v 0"
       id="path49-9" />
    <path
       style="fill:none;stroke:#000000"
       d="m 556.05572,131.57399 v 0"
       id="path50-3" />
    <path
       style="fill:none;stroke:#000000"
       d="m 538.41702,113.93499 17.6387,17.639"
       id="path51-7" />
    <path
       style="fill:none;stroke:#000000"
       d="m 538.41702,113.93499 17.6387,17.639"
       id="path52-4" />
    <path
       style="fill:none;stroke:#000000"
       d="m 556.05572,131.57399 v 0"
       id="path53-5" />
    <path
       style="fill:none;stroke:#000000"
       d="m 573.69442,113.93499 v 0"
       id="path54-2" />
    <path
       style="fill:none;stroke:#000000"
       d="m 556.05572,131.57399 17.6387,-17.639"
       id="path55-5" />
    <path
       style="fill:none;stroke:#000000"
       d="m 556.05572,131.57399 17.6387,-17.639"
       id="path56-4" />
    <path
       d="m 641.09509,113.93538 a 85.03937,85.03937 0 0 0 -170.07874,0"
       style="fill:none;stroke:#000000"
       id="path81-9" />
    <path
       style="fill:none;stroke:#000000"
       d="m 471.01632,113.93499 v 699.217"
       id="path82-5" />
    <path
       d="m 471.01635,813.14798 a 85.03937,85.03937 0 0 0 170.07874,0"
       style="fill:none;stroke:#000000"
       id="path83-0" />
    <path
       style="fill:none;stroke:#000000"
       d="m 641.09512,113.93499 v 699.217"
       id="path84-4" />
    <path
       d="m 595.74076,463.54168 a 39.685039,39.685039 0 0 0 -79.37007,0 39.685039,39.685039 0 0 0 79.37007,0 z"
       style="fill:none;stroke:#000000"
       id="path85-8" />
    <path
       style="fill:none;stroke:#000000"
       d="m 573.69442,813.15199 -17.6387,-17.64"
       id="path86-7" />
    <path
       style="fill:none;stroke:#000000"
       d="m 556.05572,795.51199 -17.6387,17.64"
       id="path87-1" />
    <path
       style="fill:none;stroke:#000000"
       d="m 538.41702,813.15199 17.6387,17.63"
       id="path88-7" />
    <path
       style="fill:none;stroke:#000000"
       d="m 556.05572,830.78199 17.6387,-17.63"
       id="path89-2" />
    <path
       style="fill:none;stroke:#000000"
       d="m 573.69442,113.93499 -17.6387,-17.638"
       id="path90-7" />
    <path
       style="fill:none;stroke:#000000"
       d="m 556.05572,96.29699 -17.6387,17.638"
       id="path91-2" />
    <path
       style="fill:none;stroke:#000000"
       d="m 538.41702,113.93499 17.6387,17.639"
       id="path92-2" />
    <path
       style="fill:none;stroke:#000000"
       d="m 556.05572,131.57399 17.6387,-17.639"
       id="path93-6" />
    <path
       d="m 641.09509,113.93538 a 85.03937,85.03937 0 0 0 -170.07874,0"
       style="fill:none;stroke:#000000"
       id="path100-4" />
    <path
       style="fill:none;stroke:#000000"
       d="m 471.01632,113.93499 v 699.217"
       id="path101-9" />
    <path
       d="m 471.01635,813.14798 a 85.03937,85.03937 0 0 0 170.07874,0"
       style="fill:none;stroke:#000000"
       id="path102-0" />
    <path
       style="fill:none;stroke:#000000"
       d="m 641.09512,113.93499 v 699.217"
       id="path103-9" />
    <path
       d="m 595.74076,463.54168 a 39.685039,39.685039 0 0 0 -79.37007,0 39.685039,39.685039 0 0 0 79.37007,0 z"
       style="fill:none;stroke:#000000"
       id="path104-1" />
    <path
       style="fill:none;stroke:#000000"
       d="m 573.69442,813.15199 -17.6387,-17.64"
       id="path105-7" />
    <path
       style="fill:none;stroke:#000000"
       d="m 556.05572,795.51199 -17.6387,17.64"
       id="path106-7" />
    <path
       style="fill:none;stroke:#000000"
       d="m 538.41702,813.15199 17.6387,17.63"
       id="path107-1" />
    <path
       style="fill:none;stroke:#000000"
       d="m 556.05572,830.78199 17.6387,-17.63"
       id="path108-1" />
    <path
       style="fill:none;stroke:#000000"
       d="m 573.69442,113.93499 -17.6387,-17.638"
       id="path109-5" />
    <path
       style="fill:none;stroke:#000000"
       d="m 556.05572,96.29699 -17.6387,17.638"
       id="path110-9" />
    <path
       style="fill:none;stroke:#000000"
       d="m 538.41702,113.93499 17.6387,17.639"
       id="path111-7" />
    <path
       style="fill:none;stroke:#000000"
       d="m 556.05572,131.57399 17.6387,-17.639"
       id="path112-7" />
    <text
       xml:space="preserve"
       style="font-weight:bold;font-size:21.3333px;font-family:'Waltograph UI';-inkscape-font-specification:'Waltograph UI Bold';fill:#000000"
       x="565.04639"
       y="581.5401"
       id="text118-39"><tspan
         sodipodi:role="line"
         id="tspan118-4"
         x="565.04639"
         y="581.5401"
         style="font-style:normal;font-variant:normal;font-weight:normal;font-stretch:normal;font-family:arial;-inkscape-font-specification:arial">25,5</tspan></text>
    <g
       id="g2"
       transform="translate(148.93237,-248.34774)">
      <text
         xml:space="preserve"
         style="font-weight:bold;font-size:21.3333px;font-family:'Waltograph UI';-inkscape-font-specification:'Waltograph UI Bold';fill:#000000"
         x="403.23376"
         y="660.50317"
         id="text118-9-0"><tspan
           sodipodi:role="line"
           id="tspan118-1-8"
           x="403.23376"
           y="660.50317"
           style="font-style:normal;font-variant:normal;font-weight:normal;font-stretch:normal;font-family:arial;-inkscape-font-specification:arial">21</tspan></text>
    </g>
    <path
       style="fill:#000000;stroke:#000000;stroke-dasharray:1, 3;stroke-dashoffset:0;stroke-opacity:1"
       d="m 539.06899,114.2234 34.05377,-0.48601"
       id="path119-8" />
    <path
       style="fill:#000000;stroke:#000000;stroke-dasharray:1, 3;stroke-dashoffset:0;stroke-opacity:1"
       d="m 556.19479,96.56277 -0.053,34.86825"
       id="path120-5" />
    <path
       style="fill:#000000;stroke:#000000;stroke-dasharray:1, 3;stroke-dashoffset:0;stroke-opacity:1"
       d="m 539.31816,813.16675 34.15867,0.13276 v 0"
       id="path121-0" />
    <path
       style="fill:#000000;stroke:#000000;stroke-dasharray:1, 3;stroke-dashoffset:0;stroke-opacity:1"
       d="m 556.68156,795.88271 -0.80352,34.34079"
       id="path122-9" />
    <path
       style="fill:none;stroke:#000000"
       d="m 568.33922,638.39005 v 0"
       id="path73-0" />
    <path
       style="fill:none;stroke:#000000"
       d="m 568.33922,638.39005 v 0"
       id="path74-6" />
    <path
       d="m 601.45196,638.38629 a 45.396235,45.396245 0 0 0 -90.79246,0 45.396235,45.396245 0 0 0 90.79246,0 z"
       style="fill:none;stroke:#000000;stroke-width:3.69572"
       id="path117-5" />
    <circle
       style="fill:#000000;stroke:#000000;stroke-dasharray:none;stroke-dashoffset:0;stroke-opacity:1"
       id="path125-8"
       cx="556.05573"
       cy="638.38629"
       r="3.516793" />
    <circle
       style="fill:#000000;stroke:#000000;stroke-dasharray:none;stroke-dashoffset:0;stroke-opacity:1"
       id="path125-9-5"
       cx="556.05573"
       cy="463.54166"
       r="3.516793" />
    <rect
       style="fill:none;stroke:#000000;stroke-width:0.850061;stroke-dasharray:none;stroke-dashoffset:0;stroke-opacity:1"
       id="rect126-1"
       width="55.842854"
       height="149.07834"
       x="419.10117"
       y="389.0025" />
    <path
       style="fill:none;stroke:#000000;stroke-dasharray:none;stroke-dashoffset:0;stroke-opacity:1"
       d="m 472.50426,8.070196 c 0,977.873844 1.0467,977.183344 1.0467,977.183344 l -3.00728,0.1648"
       id="path126-1" />
    <path
       style="fill:none;stroke:#000000;stroke-dasharray:none;stroke-dashoffset:0;stroke-opacity:1"
       d="m 24.813477,1067.7661 c 706.024943,0 706.024943,-2.043 706.024943,-2.043"
       id="path127" />
  </g>
</svg>
